<?xml version="1.0" standalone="no"?>
<!DOCTYPE svg PUBLIC "-//W3C//DTD SVG 20010904//EN"
 "http://www.w3.org/TR/2001/REC-SVG-20010904/DTD/svg10.dtd">
<svg version="1.0" xmlns="http://www.w3.org/2000/svg"
 width="696.000000pt" height="202.000000pt" viewBox="0 0 696.000000 202.000000"
 preserveAspectRatio="xMidYMid meet">

<g transform="translate(0.000000,202.000000) scale(0.100000,-0.100000)"
fill="#000000" stroke="none">
<path d="M497 1263 c-177 -356 -323 -651 -325 -655 -2 -5 81 -8 185 -8 l189 0
322 648 c177 356 322 650 322 655 0 4 -83 7 -185 7 l-186 0 -322 -647z"/>
<path d="M2039 1901 c-110 -34 -193 -104 -244 -207 -35 -70 -39 -86 -39 -158
-1 -99 14 -154 62 -226 78 -115 190 -175 327 -175 157 0 293 88 357 231 30 69
37 202 13 275 -40 120 -131 212 -249 252 -52 18 -179 22 -227 8z"/>
<path d="M5562 1298 c-13 -13 -17 -212 -6 -242 9 -24 249 -24 258 0 3 9 6 67
6 129 0 94 -3 114 -16 119 -30 11 -229 7 -242 -6z"/>
<path d="M4297 1153 c-4 -3 -7 -248 -7 -543 0 -403 3 -539 12 -548 7 -7 44
-12 94 -12 90 0 114 5 114 25 0 27 23 27 72 0 77 -42 175 -59 259 -45 126 21
226 83 284 175 45 71 64 129 71 215 16 191 -68 352 -219 424 -99 47 -185 61
-268 45 -35 -6 -76 -18 -91 -25 -15 -8 -32 -14 -38 -14 -6 0 -10 53 -10 155
l0 155 -133 0 c-74 0 -137 -3 -140 -7z m518 -525 c105 -53 135 -197 59 -288
-84 -99 -243 -79 -303 37 -17 33 -16 135 2 169 45 87 157 124 242 82z"/>
<path d="M6308 1028 l-3 -113 -94 -3 c-52 -1 -100 -7 -107 -13 -13 -11 -17
-178 -5 -198 4 -6 52 -12 106 -13 l100 -3 5 -240 c5 -217 7 -244 26 -285 48
-102 98 -121 336 -128 l177 -4 3 91 c2 51 0 100 -3 109 -5 14 -25 18 -130 22
-158 6 -150 -8 -146 245 l2 190 138 3 137 3 0 109 0 109 -137 3 -138 3 -3 113
-3 112 -129 0 -129 0 -3 -112z"/>
<path d="M5352 898 c-8 -8 -12 -47 -12 -110 l0 -98 105 0 105 0 0 -220 0 -220
-116 0 c-63 0 -124 -5 -135 -10 -17 -10 -19 -22 -19 -110 l0 -100 403 2 402 3
3 99 c2 73 -1 102 -10 108 -7 4 -68 8 -135 8 l-123 0 0 324 c0 286 -2 325 -16
330 -31 12 -439 7 -452 -6z"/>
<path d="M1033 833 c-10 -4 -13 -91 -13 -389 l0 -384 180 0 180 0 -2 387 -3
388 -165 2 c-91 1 -171 -1 -177 -4z"/>
<path d="M2015 816 c-99 -37 -189 -120 -233 -214 -24 -50 -27 -69 -27 -162 1
-98 3 -109 32 -165 80 -154 241 -239 407 -216 127 18 240 101 298 219 30 61
33 74 33 162 -1 75 -5 107 -24 152 -33 84 -107 160 -196 203 -67 33 -78 35
-166 34 -52 -1 -108 -6 -124 -13z"/>
</g>
</svg>
